<svg width="80" height="80" viewBox="0 0 80 80" fill="none" xmlns="http://www.w3.org/2000/svg">
<g clip-path="url(#clip0_162_9)">
<mask id="mask0_162_9" style="mask-type:luminance" maskUnits="userSpaceOnUse" x="0" y="0" width="80" height="80">
<path d="M80 0H0V80H80V0Z" fill="white"/>
</mask>
<g mask="url(#mask0_162_9)">
<path d="M38.5624 0.374966C38.3124 0.624966 38.1249 10.625 38.1249 22.625C38.1249 34.5625 37.8749 44.375 37.6249 44.375C37.3749 44.375 35.3124 42.5625 33.1249 40.3125C28.9374 36.0625 26.7499 35.25 26.3749 37.8125C26.2499 38.75 28.0624 40.9375 32.6874 45.5C36.2499 49 39.5624 51.875 39.9999 51.875C40.4374 51.875 43.7499 49 47.3124 45.5C51.9374 40.9375 53.7499 38.75 53.6249 37.8125C53.2499 35.25 51.0624 36.0625 46.8749 40.3125C44.6874 42.5625 42.6249 44.375 42.3749 44.375C42.1249 44.375 41.8124 34.4375 41.7499 22.3125C41.5624 0.687466 41.5624 0.312466 40.3124 0.124966C39.5624 -3.42615e-05 38.8124 0.124966 38.5624 0.374966Z" fill="#FF0000"/>
<path d="M11.125 24.4375C10.0625 25 10 27 10 51.75C10 71.75 10.1875 78.6875 10.75 79.25C11.8125 80.3125 68.1875 80.3125 69.25 79.25C69.8125 78.6875 70 71.75 70 51.75C70 26 69.9375 25 68.8125 24.375C68.125 24.0625 63.625 23.75 58.8125 23.75H50V25.9375V28.125H58.125H66.25L66.125 52L65.9375 75.9375H40H14.0625L13.875 52L13.75 28.125H21.875H30V25.9375V23.75H21.125C16.1875 23.75 11.6875 24.0625 11.125 24.4375Z" fill="#FF0000"/>
</g>
</g>
<defs>
<clipPath id="clip0_162_9">
<rect width="80" height="80" fill="white"/>
</clipPath>
</defs>
</svg>
