<svg width="80" height="80" viewBox="0 0 80 80" fill="none" xmlns="http://www.w3.org/2000/svg">
<g clip-path="url(#clip0_162_2)">
<mask id="mask0_162_2" style="mask-type:luminance" maskUnits="userSpaceOnUse" x="0" y="0" width="80" height="80">
<path d="M80 0H0V80H80V0Z" fill="white"/>
</mask>
<g mask="url(#mask0_162_2)">
<path d="M35.7812 7.5625C28 8.6875 21.7031 11.9062 16.3594 17.4844C12.4688 21.5469 10.4375 25.1875 8.34375 31.8594C8.29688 32.0156 7.45312 31.2812 5.9375 29.7656L3.59375 27.4219L1.79688 29.2188L0 31.0156L5.39062 36.4062L10.7812 41.7969L16.2031 36.375L21.6406 30.9375L19.9219 29.2188C18.9844 28.2812 18.1406 27.5 18.0469 27.5C17.9688 27.5 16.9219 28.4688 15.7344 29.6406L13.5938 31.7969L14.0469 30.5469C17.0781 22.2969 23.6719 16.0781 32.1094 13.5156C34.5469 12.7812 36.3281 12.5 39.1406 12.3906C46.7812 12.1094 54 14.9531 59.4688 20.3906C60.25 21.1562 61.1562 22.125 61.5 22.5312L62.1094 23.2812L64.0938 21.7656L66.0625 20.25L65.3438 19.3281C64.3594 18.0312 62.0469 15.7344 60.5469 14.5312C56.1875 11.0625 51.375 8.875 45.7031 7.79688C43.4688 7.375 38.0156 7.25 35.7812 7.5625Z" fill="#FF0000" fill-opacity="0.9"/>
<path d="M63.75 43.6719L58.3594 49.0625L60.125 50.8125L61.875 52.5781L64.1406 50.3125C65.3906 49.0625 66.4062 48.0938 66.4062 48.1562C66.4062 48.3594 65.4844 50.7344 64.9531 51.9062C62.4531 57.3281 57.3125 62.4531 51.875 64.9531C44.0781 68.5469 35.6094 68.5312 28.0469 64.9219C24.375 63.1562 20.8906 60.4375 18.5781 57.4844C18.0312 56.7969 17.5156 56.2656 17.4219 56.3125C17.3125 56.3438 16.375 56.9844 15.3281 57.7344L13.4219 59.0938L13.8594 59.6719C14.7969 60.9375 16.9062 63.2656 17.9219 64.1562C24.375 69.8594 31.625 72.6562 40 72.6562C49.7031 72.6562 58.2656 68.7188 64.7969 61.2656C67.6094 58.0469 70.1406 53.4062 71.2656 49.375C71.4531 48.7344 71.6406 48.1406 71.6719 48.0625C71.7188 48 72.7969 48.9844 74.0781 50.25L76.4062 52.5781L78.2031 50.7812L80 48.9844L74.6562 43.6406C71.7031 40.6875 69.2656 38.2812 69.2188 38.2812C69.1719 38.2812 66.7188 40.7031 63.75 43.6719Z" fill="#FF0000" fill-opacity="0.9"/>
</g>
</g>
<defs>
<clipPath id="clip0_162_2">
<rect width="80" height="80" fill="white"/>
</clipPath>
</defs>
</svg>
